<?xml version="1.0" encoding="UTF-8" standalone="no"?>
<svg
   xmlns:dc="http://purl.org/dc/elements/1.1/"
   xmlns:cc="http://creativecommons.org/ns#"
   xmlns:rdf="http://www.w3.org/1999/02/22-rdf-syntax-ns#"
   xmlns:svg="http://www.w3.org/2000/svg"
   xmlns="http://www.w3.org/2000/svg"
   xmlns:sodipodi="http://sodipodi.sourceforge.net/DTD/sodipodi-0.dtd"
   xmlns:inkscape="http://www.inkscape.org/namespaces/inkscape"
   class="svg-icon"
   style="overflow:hidden;fill:currentColor"
   viewBox="0 0 512 512"
   version="1.1"
   id="svg4"
   sodipodi:docname="apple.svg"
   width="512"
   height="512"
   inkscape:version="0.92.5 (2060ec1f9f, 2020-04-08)">
  <metadata
     id="metadata10">
    <rdf:RDF>
      <cc:Work
         rdf:about="">
        <dc:format>image/svg+xml</dc:format>
        <dc:type
           rdf:resource="http://purl.org/dc/dcmitype/StillImage" />
        <dc:title />
      </cc:Work>
    </rdf:RDF>
  </metadata>
  <defs
     id="defs8" />
  <sodipodi:namedview
     pagecolor="#ffffff"
     bordercolor="#666666"
     borderopacity="1"
     objecttolerance="10"
     gridtolerance="10"
     guidetolerance="10"
     inkscape:pageopacity="0"
     inkscape:pageshadow="2"
     inkscape:window-width="1920"
     inkscape:window-height="1054"
     id="namedview6"
     showgrid="true"
     inkscape:zoom="1.32"
     inkscape:cx="80.836314"
     inkscape:cy="291.39394"
     inkscape:window-x="0"
     inkscape:window-y="26"
     inkscape:window-maximized="1"
     inkscape:current-layer="svg4">
    <inkscape:grid
       type="xygrid"
       id="grid12"
       spacingx="8"
       spacingy="8"
       dotted="true" />
  </sodipodi:namedview>
  <circle
     style="opacity:1;fill:#b0ddff;fill-opacity:1;fill-rule:nonzero;stroke:none;stroke-width:16;stroke-linecap:round;stroke-linejoin:round;stroke-miterlimit:4;stroke-dasharray:none;stroke-dashoffset:0;stroke-opacity:1;paint-order:normal"
     id="path18"
     cx="256"
     cy="256"
     r="248" />
  <path
     d="m 392.67548,329.94222 c -0.44545,1.35154 -7.40414,25.62471 -24.50266,50.58417 -14.79876,21.53021 -30.10108,43.23473 -54.26959,43.61576 -23.76738,0.41781 -31.37301,-14.18122 -58.50911,-14.18122 -27.10157,0 -35.62167,13.80019 -58.08342,14.59903 -23.22031,0.95039 -41.08828,-23.51856 -55.94307,-44.94365 -30.35909,-43.88993 -53.734881,-124.37332 -22.38424,-178.31054 15.42501,-26.98678 43.1502,-44.14087 73.34198,-44.60951 22.75214,-0.43004 44.3993,15.41277 58.21829,15.41277 14.19697,0 40.38363,-19.17004 68.00982,-16.30183 11.56704,0.4927 43.92104,4.83557 64.76672,35.04835 -1.64017,1.11594 -38.71232,22.99345 -38.29939,67.51973 0.55711,53.7537 47.15325,71.38343 47.65467,71.56694 M 300.4753,127.01342 C 312.93311,111.817 321.11952,90.927971 318.96563,70.183 301.17822,70.880701 279.50653,81.995702 266.62652,97.1019 255.2382,110.28151 245.20053,131.49594 248,152 c 19.76347,1.20046 40.08447,-10.34946 52.4753,-24.98658"
     id="path2"
     inkscape:connector-curvature="0"
     style="fill:#ffffff;fill-opacity:1;stroke-width:0.42798728"
     inkscape:export-xdpi="600"
     inkscape:export-ydpi="600" />
</svg>
