<?xml version="1.0" encoding="UTF-8" standalone="no"?>
<!-- Generator: Adobe Illustrator 19.0.0, SVG Export Plug-In . SVG Version: 6.00 Build 0)  -->

<svg
   xmlns:dc="http://purl.org/dc/elements/1.1/"
   xmlns:cc="http://creativecommons.org/ns#"
   xmlns:rdf="http://www.w3.org/1999/02/22-rdf-syntax-ns#"
   xmlns:svg="http://www.w3.org/2000/svg"
   xmlns="http://www.w3.org/2000/svg"
   xmlns:sodipodi="http://sodipodi.sourceforge.net/DTD/sodipodi-0.dtd"
   xmlns:inkscape="http://www.inkscape.org/namespaces/inkscape"
   version="1.1"
   id="Layer_1"
   x="0px"
   y="0px"
   viewBox="0 0 512 512"
   style="enable-background:new 0 0 512 512;"
   xml:space="preserve"
   sodipodi:docname="win.svg"
   inkscape:version="0.92.5 (2060ec1f9f, 2020-04-08)"><metadata
   id="metadata49"><rdf:RDF><cc:Work
       rdf:about=""><dc:format>image/svg+xml</dc:format><dc:type
         rdf:resource="http://purl.org/dc/dcmitype/StillImage" /><dc:title></dc:title></cc:Work></rdf:RDF></metadata><defs
   id="defs47" /><sodipodi:namedview
   pagecolor="#ffffff"
   bordercolor="#666666"
   borderopacity="1"
   objecttolerance="10"
   gridtolerance="10"
   guidetolerance="10"
   inkscape:pageopacity="0"
   inkscape:pageshadow="2"
   inkscape:window-width="1920"
   inkscape:window-height="1054"
   id="namedview45"
   showgrid="true"
   inkscape:zoom="1.3859293"
   inkscape:cx="182.31675"
   inkscape:cy="244.08104"
   inkscape:window-x="0"
   inkscape:window-y="26"
   inkscape:window-maximized="1"
   inkscape:current-layer="Layer_1"><inkscape:grid
     type="xygrid"
     id="grid27"
     spacingx="8"
     spacingy="8"
     dotted="true" /></sodipodi:namedview>
<circle
   style="fill:#b0ddff;fill-opacity:1;stroke-width:0.96335942"
   cx="255.27846"
   cy="255.27846"
   r="246.62001"
   id="circle2" />
<g
   id="g12"
   style="fill:#ffffff;fill-opacity:1">
	<path
   style="fill:#ffffff;fill-opacity:1"
   d="M232,246.516c0-38.996,0-77.988,0-116.984c-40,6.324-72.536,12.624-112,18.944   c0,39.78,0,59.672,0,99.456C159.464,247.472,192,246.98,232,246.516z"
   id="path4" />
	<path
   style="fill:#ffffff;fill-opacity:1"
   d="M248,246.284c40-0.48,88.536-0.936,128-1.42c0-45.78,0-91.564,0-137.344   c-39.464,6.324-88,12.62-128,18.948C248,166.408,248,206.344,248,246.284z"
   id="path6" />
	<path
   style="fill:#ffffff;fill-opacity:1"
   d="M249.6,265.72c-0.016,39.936,0,79.876,0,119.816c39.46,6.324,86.928,12.624,126.4,18.944   c0-45.78,0-91.568,0-137.344C336.536,266.668,289.072,266.192,249.6,265.72z"
   id="path8" />
	<path
   style="fill:#ffffff;fill-opacity:1"
   d="M232,265.484c-40-0.476-72.536-0.944-112-1.42c0,39.784,0,59.672,0,99.456   c39.464,6.328,72,12.62,112,18.944C232,343.472,232,304.48,232,265.484z"
   id="path10" />
</g>
<g
   id="g14">
</g>
<g
   id="g16">
</g>
<g
   id="g18">
</g>
<g
   id="g20">
</g>
<g
   id="g22">
</g>
<g
   id="g24">
</g>
<g
   id="g26">
</g>
<g
   id="g28">
</g>
<g
   id="g30">
</g>
<g
   id="g32">
</g>
<g
   id="g34">
</g>
<g
   id="g36">
</g>
<g
   id="g38">
</g>
<g
   id="g40">
</g>
<g
   id="g42">
</g>
</svg>