<?xml version="1.0" encoding="UTF-8" standalone="no"?>
<!-- Generator: Adobe Illustrator 19.0.0, SVG Export Plug-In . SVG Version: 6.00 Build 0)  -->

<svg
   xmlns:dc="http://purl.org/dc/elements/1.1/"
   xmlns:cc="http://creativecommons.org/ns#"
   xmlns:rdf="http://www.w3.org/1999/02/22-rdf-syntax-ns#"
   xmlns:svg="http://www.w3.org/2000/svg"
   xmlns="http://www.w3.org/2000/svg"
   xmlns:sodipodi="http://sodipodi.sourceforge.net/DTD/sodipodi-0.dtd"
   xmlns:inkscape="http://www.inkscape.org/namespaces/inkscape"
   version="1.1"
   id="Capa_1"
   x="0px"
   y="0px"
   viewBox="0 0 512 512"
   xml:space="preserve"
   sodipodi:docname="android.svg"
   width="512"
   height="512"
   inkscape:version="0.92.5 (2060ec1f9f, 2020-04-08)"><metadata
   id="metadata53"><rdf:RDF><cc:Work
       rdf:about=""><dc:format>image/svg+xml</dc:format><dc:type
         rdf:resource="http://purl.org/dc/dcmitype/StillImage" /><dc:title /></cc:Work></rdf:RDF></metadata><defs
   id="defs51" /><sodipodi:namedview
   pagecolor="#ffffff"
   bordercolor="#666666"
   borderopacity="1"
   objecttolerance="10"
   gridtolerance="10"
   guidetolerance="10"
   inkscape:pageopacity="0"
   inkscape:pageshadow="2"
   inkscape:window-width="1920"
   inkscape:window-height="1054"
   id="namedview49"
   showgrid="true"
   inkscape:zoom="1.55"
   inkscape:cx="55.541287"
   inkscape:cy="240.91244"
   inkscape:window-x="0"
   inkscape:window-y="26"
   inkscape:window-maximized="1"
   inkscape:current-layer="Capa_1"><inkscape:grid
     type="xygrid"
     id="grid55"
     spacingx="8"
     spacingy="8" /></sodipodi:namedview>

<g
   id="g18"
   transform="translate(0,454.999)">
</g>
<g
   id="g20"
   transform="translate(0,454.999)">
</g>
<g
   id="g22"
   transform="translate(0,454.999)">
</g>
<g
   id="g24"
   transform="translate(0,454.999)">
</g>
<g
   id="g26"
   transform="translate(0,454.999)">
</g>
<g
   id="g28"
   transform="translate(0,454.999)">
</g>
<g
   id="g30"
   transform="translate(0,454.999)">
</g>
<g
   id="g32"
   transform="translate(0,454.999)">
</g>
<g
   id="g34"
   transform="translate(0,454.999)">
</g>
<g
   id="g36"
   transform="translate(0,454.999)">
</g>
<g
   id="g38"
   transform="translate(0,454.999)">
</g>
<g
   id="g40"
   transform="translate(0,454.999)">
</g>
<g
   id="g42"
   transform="translate(0,454.999)">
</g>
<g
   id="g44"
   transform="translate(0,454.999)">
</g>
<g
   id="g46"
   transform="translate(0,454.999)">
</g>
<g
   id="g16"
   transform="matrix(6.3241437,0,0,6.3241437,76.090593,73.150827)"
   style="fill:#fbfbfb;fill-opacity:1">
	<g
   id="g14"
   style="fill:#fbfbfb;fill-opacity:1">
		<path
   d="M 35.361,5.677 37.858,1.515 C 38.142,1.041 37.989,0.427 37.515,0.143 37.04,-0.142 36.427,0.011 36.143,0.486 L 33.508,4.878 C 31.939,4.32 30.259,4 28.501,4 26.743,4 25.063,4.32 23.494,4.878 L 20.859,0.486 C 20.575,0.011 19.961,-0.141 19.487,0.143 19.013,0.427 18.86,1.041 19.144,1.515 l 2.497,4.162 c -4.827,2.495 -8.14,7.525 -8.14,13.324 0,0.553 0.448,1 1,1 h 28 c 0.552,0 1,-0.447 1,-1 C 43.5,13.203 40.188,8.173 35.361,5.677 Z M 15.539,18.001 c 0.512,-6.703 6.13,-12 12.962,-12 6.832,0 12.45,5.297 12.962,12 z"
   id="path2"
   inkscape:connector-curvature="0"
   style="fill:#fbfbfb;fill-opacity:1" />
		<path
   d="M 35.478,11.364 H 34.16 c -0.364,0 -0.659,0.295 -0.659,0.659 v 1.318 c 0,0.364 0.295,0.659 0.659,0.659 h 1.319 c 0.364,0 0.659,-0.295 0.659,-0.659 v -1.318 c 0,-0.364 -0.296,-0.659 -0.66,-0.659 z"
   id="path4"
   inkscape:connector-curvature="0"
   style="fill:#fbfbfb;fill-opacity:1" />
		<path
   d="m 22.841,11.364 h -1.319 c -0.364,0 -0.659,0.295 -0.659,0.659 v 1.318 c 0,0.364 0.295,0.659 0.659,0.659 h 1.319 c 0.364,0 0.659,-0.295 0.659,-0.659 v -1.318 c 0,-0.364 -0.295,-0.659 -0.659,-0.659 z"
   id="path6"
   inkscape:connector-curvature="0"
   style="fill:#fbfbfb;fill-opacity:1" />
		<path
   d="m 42.5,21.001 h -28 c -0.552,0 -1,0.447 -1,1 v 20.171 c 0,2.663 2.169,4.829 4.834,4.829 H 19.5 v 6.006 c 0,2.202 1.794,3.994 4,3.994 2.206,0 4,-1.792 4,-3.994 v -6.006 h 2 v 6.006 c 0,2.202 1.794,3.994 4,3.994 2.206,0 4,-1.792 4,-3.994 v -6.006 h 1.166 c 2.666,0 4.834,-2.166 4.834,-4.829 V 22.001 c 0,-0.553 -0.447,-1 -1,-1 z m -1,21.171 c 0,1.56 -1.271,2.829 -2.834,2.829 H 36.5 c -0.552,0 -1,0.447 -1,1 v 7.006 c 0,1.1 -0.897,1.994 -2,1.994 -1.103,0 -2,-0.895 -2,-1.994 v -7.006 c 0,-0.553 -0.448,-1 -1,-1 h -4 c -0.552,0 -1,0.447 -1,1 v 7.006 c 0,1.1 -0.897,1.994 -2,1.994 -1.103,0 -2,-0.895 -2,-1.994 v -7.006 c 0,-0.553 -0.448,-1 -1,-1 h -2.165 c -1.563,0 -2.835,-1.27 -2.835,-2.829 V 23.001 h 26 z"
   id="path8"
   inkscape:connector-curvature="0"
   style="fill:#fbfbfb;fill-opacity:1" />
		<path
   d="m 48,21.001 c -1.93,0 -3.5,1.572 -3.5,3.504 v 13.992 c 0,1.932 1.57,3.504 3.5,3.504 1.93,0 3.5,-1.572 3.5,-3.504 V 24.505 c 0,-1.932 -1.57,-3.504 -3.5,-3.504 z m 1.5,17.496 c 0,0.829 -0.673,1.504 -1.5,1.504 -0.827,0 -1.5,-0.675 -1.5,-1.504 V 24.505 c 0,-0.829 0.673,-1.504 1.5,-1.504 0.827,0 1.5,0.675 1.5,1.504 z"
   id="path10"
   inkscape:connector-curvature="0"
   style="fill:#fbfbfb;fill-opacity:1" />
		<path
   d="m 9,21.001 c -1.93,0 -3.5,1.572 -3.5,3.504 v 13.992 c 0,1.932 1.57,3.504 3.5,3.504 1.93,0 3.5,-1.572 3.5,-3.504 V 24.505 c 0,-1.932 -1.57,-3.504 -3.5,-3.504 z m 1.5,17.496 c 0,0.829 -0.673,1.504 -1.5,1.504 -0.827,0 -1.5,-0.675 -1.5,-1.504 V 24.505 c 0,-0.829 0.673,-1.504 1.5,-1.504 0.827,0 1.5,0.675 1.5,1.504 z"
   id="path12"
   inkscape:connector-curvature="0"
   style="fill:#fbfbfb;fill-opacity:1" />
	</g>
</g></svg>