<?xml version="1.0" encoding="UTF-8" standalone="no"?>
<!-- Svg Vector Icons : http://www.onlinewebfonts.com/icon -->

<svg
   xmlns:dc="http://purl.org/dc/elements/1.1/"
   xmlns:cc="http://creativecommons.org/ns#"
   xmlns:rdf="http://www.w3.org/1999/02/22-rdf-syntax-ns#"
   xmlns:svg="http://www.w3.org/2000/svg"
   xmlns="http://www.w3.org/2000/svg"
   xmlns:sodipodi="http://sodipodi.sourceforge.net/DTD/sodipodi-0.dtd"
   xmlns:inkscape="http://www.inkscape.org/namespaces/inkscape"
   version="1.1"
   x="0px"
   y="0px"
   viewBox="0 0 512 512"
   enable-background="new 0 0 1000 1000"
   xml:space="preserve"
   id="svg10"
   sodipodi:docname="linux.svg"
   width="512"
   height="512"
   inkscape:version="0.92.5 (2060ec1f9f, 2020-04-08)"><defs
   id="defs14" /><sodipodi:namedview
   pagecolor="#ffffff"
   bordercolor="#666666"
   borderopacity="1"
   objecttolerance="10"
   gridtolerance="10"
   guidetolerance="10"
   inkscape:pageopacity="0"
   inkscape:pageshadow="2"
   inkscape:window-width="1920"
   inkscape:window-height="1054"
   id="namedview12"
   showgrid="true"
   inkscape:zoom="1.63"
   inkscape:cx="145"
   inkscape:cy="266.38037"
   inkscape:window-x="0"
   inkscape:window-y="26"
   inkscape:window-maximized="1"
   inkscape:current-layer="svg10"><inkscape:grid
     type="xygrid"
     id="grid16"
     spacingx="8"
     spacingy="8"
     dotted="true" /></sodipodi:namedview>
<metadata
   id="metadata2"> Svg Vector Icons : http://www.onlinewebfonts.com/icon <rdf:RDF><cc:Work
     rdf:about=""><dc:format>image/svg+xml</dc:format><dc:type
       rdf:resource="http://purl.org/dc/dcmitype/StillImage" /><dc:title></dc:title></cc:Work></rdf:RDF></metadata>
<circle
   style="opacity:1;fill:#b0ddff;fill-opacity:1;fill-rule:nonzero;stroke:none;stroke-width:16;stroke-linecap:round;stroke-linejoin:round;stroke-miterlimit:4;stroke-dasharray:none;stroke-dashoffset:0;stroke-opacity:1;paint-order:normal"
   id="path823"
   cx="256"
   cy="256"
   r="248" /><g
   id="g8"
   transform="matrix(0.36122387,0,0,0.36122387,75.040147,56.284363)"
   style="fill:#ffffff;fill-opacity:1"><g
     transform="matrix(0.1,0,0,-0.1,0,511)"
     id="g6"
     style="fill:#ffffff;fill-opacity:1"><path
       d="m 4785,4996.5 c -322.6,-57.4 -651.1,-205.8 -835.2,-380 -330.5,-306.8 -423.5,-793.6 -336.4,-1747.5 33.6,-374 37.6,-896.5 7.9,-1078.6 -23.7,-154.4 -49.5,-195.9 -304.8,-514.6 -583.8,-730.3 -665,-870.8 -930.2,-1583.3 -83.1,-223.6 -205.8,-520.5 -271.1,-661 -112.8,-235.5 -122.7,-267.2 -130.6,-419.6 -5.9,-95 0,-190 13.9,-227.6 21.8,-63.3 19.8,-67.3 -63.3,-140.5 -49.5,-39.6 -124.7,-136.6 -170.2,-213.7 -132.6,-219.7 -259.3,-296.9 -659,-395.8 -265.2,-65.3 -281,-73.2 -360.2,-156.3 -81.1,-83.1 -93,-235.5 -33.6,-425.5 63.3,-203.8 55.4,-328.5 -37.6,-613.5 -91,-277.1 -93,-314.7 -41.6,-401.7 77.2,-122.7 304.8,-213.7 684.8,-271.1 524.5,-81.1 613.5,-100.9 1128.1,-269.1 777.8,-255.3 969.7,-283 1211.2,-178.1 97,41.5 283,209.8 283,255.3 0,27.7 43.5,37.6 411.6,95 306.8,45.5 413.6,53.4 855,53.4 435.4,2 542.2,-4 787.7,-43.5 156.4,-25.7 296.9,-51.5 312.7,-57.4 15.8,-5.9 43.6,-37.6 59.4,-69.3 51.5,-99 188,-233.5 294.9,-288.9 91,-49.5 118.7,-53.4 326.6,-53.4 188,0 245.4,7.9 336.4,45.5 102.9,41.6 148.4,71.3 407.7,285 152.4,124.7 524.5,344.3 1025.2,601.6 451.2,235.5 564,318.6 617.5,453.2 71.3,190 2,312.7 -247.4,431.4 -93,45.5 -207.8,116.8 -255.3,160.3 -126.7,116.7 -162.3,201.9 -180.1,425.5 -15.8,205.8 -65.3,334.5 -178.1,461.1 l -57.4,67.3 39.6,156.3 c 59.4,223.6 63.3,831.2 9.9,1009.3 -129,413.6 -485.2,1003.4 -1191.7,1959.3 -193.9,261.2 -376,528.4 -407.7,593.7 -97,205.8 -136.6,401.7 -156.4,801.5 -47.5,878.7 -97,1151.8 -289,1541.7 -97,199.9 -130.6,247.4 -283,397.8 -136.6,136.6 -203.8,188 -338.4,253.3 -93,45.5 -221.7,97 -287,114.8 -136.4,37.6 -617.4,55.4 -767.8,27.7 z M 5541,3718 c 387.9,-114.8 500.7,-710.5 188,-995.5 -79.2,-73.2 -89.1,-79.2 -144.5,-59.4 -33.7,11.9 -61.3,23.7 -61.3,27.7 0,4 25.7,33.6 57.4,65.3 156.3,154.4 110.8,449.3 -83.1,544.2 -61.4,31.7 -83.1,33.6 -142.5,13.9 -142.5,-47.5 -231.6,-225.6 -192,-391.9 9.9,-51.4 19.8,-95 17.8,-95 -2,-2 -49.5,13.9 -106.9,35.6 -87.1,33.6 -106.9,51.5 -126.7,112.8 -13.8,39.6 -25.7,130.6 -23.7,203.8 0,245.4 154.4,475 362.2,540.3 116.8,35.8 132.6,35.8 255.3,-1.8 z M 4276.4,3611.2 c 100.9,-51.4 174.2,-148.4 219.7,-298.8 65.3,-209.8 49.5,-350.3 -47.5,-399.8 -35.6,-17.8 -81.1,-47.5 -104.9,-63.3 -39.6,-29.7 -39.6,-27.7 -31.7,87.1 9.9,146.4 -43.5,281 -138.5,338.4 -87.1,53.4 -122.7,49.5 -195.9,-15.8 -53.4,-47.5 -65.3,-73.2 -73.2,-170.2 -15.8,-190 95,-385.9 219.7,-387.9 39.6,-2 35.6,-7.9 -25.7,-59.4 -37.6,-33.7 -77.2,-59.4 -89.1,-59.4 -39.6,0 -166.2,146.5 -207.8,241.4 -122.7,279 -27.7,668.9 192,785.7 96.9,51.4 185.9,51.4 282.9,2 z m 625.4,-918.3 c 651.1,-221.7 825.3,-322.6 730.3,-427.5 -35.6,-39.6 -659,-389.9 -829.2,-465.1 -61.3,-27.7 -146.4,-49.5 -186,-49.5 -162.3,0 -649.1,370.1 -633.3,482.9 4,33.6 77.2,102.9 253.3,239.5 366.1,285 419.5,302.8 664.9,219.7 z M 5895.3,2018 c 55.4,-71.2 332.5,-619.4 508.6,-1009.3 304.8,-674.9 506.6,-1193.4 595.7,-1529.8 69.3,-265.2 85.1,-659 39.6,-969.7 -47.5,-326.6 -37.6,-310.7 -211.7,-312.7 -150.4,0 -237.5,-33.6 -263.2,-100.9 -21.8,-57.4 -51.4,-486.8 -51.4,-763.9 v -275.1 l -164.3,-160.3 c -277.1,-275.1 -585.8,-459.1 -906.4,-546.2 -247.4,-67.3 -484.9,-91 -924.2,-91 h -423.5 l -156.5,168 c -87.1,93 -184,199.9 -215.7,239.5 l -59.4,73.2 93,45.5 c 172.2,85.1 229.6,247.4 146.4,409.7 -51.5,102.9 -178.1,213.8 -538.3,484.9 -372.1,277.1 -508.6,397.8 -589.8,526.4 -201.8,314.7 -140.4,965.8 136.6,1446.7 116.8,203.8 144.5,269.2 310.7,712.5 152.4,409.7 190,486.9 312.7,643.2 186,239.5 338.4,645.2 322.6,858.9 l -5.9,95 118.8,-108.8 c 257.3,-235.5 514.6,-362.2 666.9,-330.5 93,19.8 314.7,124.7 655.1,308.7 451.2,247.4 536.3,273.1 603.6,186 z M 2338.9,-1985.7 c 140.5,-91 316.7,-294.9 492.8,-579.9 275.1,-441.3 469,-720.4 585.8,-853 207.8,-233.5 304.8,-411.6 304.8,-566 0,-152.4 -150.4,-362.2 -324.6,-453.2 -114.8,-59.4 -463.1,19.8 -1003.4,227.6 -378,146.5 -380,148.4 -839.1,221.7 -680.8,108.8 -680.8,108.8 -566,490.8 81.1,267.2 87.1,330.5 53.4,500.7 -33.7,158.3 -39.6,233.5 -19.8,285 19.8,51.5 142.5,100.9 393.8,156.3 364.1,83.1 399.8,106.9 554.1,387.9 136.6,253.4 203.9,285.1 368.2,182.1 z m 4702.3,-290.9 c 13.9,-102.9 41.6,-199.9 69.3,-249.3 93,-168.2 322.6,-231.6 595.7,-168.2 259.3,61.3 435.4,184 552.2,385.9 51.5,89.1 65.3,91 120.7,17.8 25.7,-35.6 41.6,-102.9 53.4,-225.6 25.7,-306.8 95,-411.7 356.2,-552.2 176.1,-97 277.1,-182.1 277.1,-237.5 0,-55.4 -95,-114.8 -484.9,-310.7 -530.4,-265.2 -635.3,-328.5 -837.1,-504.7 -296.9,-259.2 -524.5,-378 -684.8,-356.2 -110.8,15.8 -227.6,104.9 -287,221.7 -83.1,158.3 -79.2,312.7 9.9,744.1 l 77.2,364.2 v 500.7 c 0,542.3 0,538.3 108.8,538.3 47.5,-0.1 51.5,-8 73.3,-168.3 z"
       id="path4"
       inkscape:connector-curvature="0"
       style="fill:#ffffff;fill-opacity:1" /></g></g>
</svg>